<svg width="24.000000" height="24.000000" viewBox="0 0 24 24" fill="none" xmlns="http://www.w3.org/2000/svg" xmlns:xlink="http://www.w3.org/1999/xlink">
	<desc>
			Created with Pixso.
	</desc>
	<defs>
		<clipPath id="clip1_32">
			<rect id="shopping-card" width="24.000000" height="24.000000" fill="white" fill-opacity="0"/>
		</clipPath>
	</defs>
	<rect id="shopping-card" width="24.000000" height="24.000000" fill="#FFFFFF" fill-opacity="0"/>
	<g clip-path="url(#clip1_32)">
		<path id="Vector" d="M17 18C17.5305 18 18.0391 18.2109 18.4143 18.5859C18.7893 18.9609 19 19.4697 19 20C19 20.5303 18.7893 21.0391 18.4143 21.4141C18.0391 21.7891 17.5305 22 17 22C16.4695 22 15.9609 21.7891 15.5857 21.4141C15.2107 21.0391 15 20.5303 15 20C15 18.8901 15.8899 18 17 18ZM1 2L4.27002 2L5.20996 4L20 4C20.2651 4 20.5195 4.10547 20.707 4.29297C20.8945 4.48047 21 4.73486 21 5C21 5.16992 20.95 5.33984 20.8799 5.5L17.3 11.9702C16.96 12.5801 16.3 13 15.55 13L8.1001 13L7.19995 14.6299L7.16992 14.75C7.16992 14.8164 7.19629 14.8799 7.24316 14.9268C7.29004 14.9736 7.35376 15 7.41992 15L19 15L19 17L7 17C6.46948 17 5.96094 16.7891 5.58569 16.4141C5.21069 16.0391 5 15.5303 5 15C5 14.6499 5.09009 14.3198 5.23999 14.04L6.6001 11.5898L3 4L1 4L1 2ZM7 18C7.53052 18 8.03906 18.2109 8.41431 18.5859C8.78931 18.9609 9 19.4697 9 20C9 20.5303 8.78931 21.0391 8.41431 21.4141C8.03906 21.7891 7.53052 22 7 22C6.46948 22 5.96094 21.7891 5.58569 21.4141C5.21069 21.0391 5 20.5303 5 20C5 18.8901 5.88989 18 7 18ZM16 11L18.78 6L6.13989 6L8.5 11L16 11Z" fill="#191411" fill-opacity="1.000000" fill-rule="nonzero"/>
	</g>
</svg>
